%TF.GenerationSoftware,KiCad,Pcbnew,9.0.0*%
%TF.CreationDate,2025-04-03T13:23:07+05:30*%
%TF.ProjectId,Air Quality Monitor,41697220-5175-4616-9c69-7479204d6f6e,rev?*%
%TF.SameCoordinates,Original*%
%TF.FileFunction,Legend,Top*%
%TF.FilePolarity,Positive*%
%FSLAX46Y46*%
G04 Gerber Fmt 4.6, Leading zero omitted, Abs format (unit mm)*
G04 Created by KiCad (PCBNEW 9.0.0) date 2025-04-03 13:23:07*
%MOMM*%
%LPD*%
G01*
G04 APERTURE LIST*
%ADD10C,0.150000*%
%ADD11C,0.120000*%
%ADD12C,0.100000*%
G04 APERTURE END LIST*
D10*
X138263095Y-78959819D02*
X138263095Y-79769342D01*
X138263095Y-79769342D02*
X138310714Y-79864580D01*
X138310714Y-79864580D02*
X138358333Y-79912200D01*
X138358333Y-79912200D02*
X138453571Y-79959819D01*
X138453571Y-79959819D02*
X138644047Y-79959819D01*
X138644047Y-79959819D02*
X138739285Y-79912200D01*
X138739285Y-79912200D02*
X138786904Y-79864580D01*
X138786904Y-79864580D02*
X138834523Y-79769342D01*
X138834523Y-79769342D02*
X138834523Y-78959819D01*
X139453571Y-79388390D02*
X139358333Y-79340771D01*
X139358333Y-79340771D02*
X139310714Y-79293152D01*
X139310714Y-79293152D02*
X139263095Y-79197914D01*
X139263095Y-79197914D02*
X139263095Y-79150295D01*
X139263095Y-79150295D02*
X139310714Y-79055057D01*
X139310714Y-79055057D02*
X139358333Y-79007438D01*
X139358333Y-79007438D02*
X139453571Y-78959819D01*
X139453571Y-78959819D02*
X139644047Y-78959819D01*
X139644047Y-78959819D02*
X139739285Y-79007438D01*
X139739285Y-79007438D02*
X139786904Y-79055057D01*
X139786904Y-79055057D02*
X139834523Y-79150295D01*
X139834523Y-79150295D02*
X139834523Y-79197914D01*
X139834523Y-79197914D02*
X139786904Y-79293152D01*
X139786904Y-79293152D02*
X139739285Y-79340771D01*
X139739285Y-79340771D02*
X139644047Y-79388390D01*
X139644047Y-79388390D02*
X139453571Y-79388390D01*
X139453571Y-79388390D02*
X139358333Y-79436009D01*
X139358333Y-79436009D02*
X139310714Y-79483628D01*
X139310714Y-79483628D02*
X139263095Y-79578866D01*
X139263095Y-79578866D02*
X139263095Y-79769342D01*
X139263095Y-79769342D02*
X139310714Y-79864580D01*
X139310714Y-79864580D02*
X139358333Y-79912200D01*
X139358333Y-79912200D02*
X139453571Y-79959819D01*
X139453571Y-79959819D02*
X139644047Y-79959819D01*
X139644047Y-79959819D02*
X139739285Y-79912200D01*
X139739285Y-79912200D02*
X139786904Y-79864580D01*
X139786904Y-79864580D02*
X139834523Y-79769342D01*
X139834523Y-79769342D02*
X139834523Y-79578866D01*
X139834523Y-79578866D02*
X139786904Y-79483628D01*
X139786904Y-79483628D02*
X139739285Y-79436009D01*
X139739285Y-79436009D02*
X139644047Y-79388390D01*
X78747200Y-117003332D02*
X78794819Y-116860475D01*
X78794819Y-116860475D02*
X78794819Y-116622380D01*
X78794819Y-116622380D02*
X78747200Y-116527142D01*
X78747200Y-116527142D02*
X78699580Y-116479523D01*
X78699580Y-116479523D02*
X78604342Y-116431904D01*
X78604342Y-116431904D02*
X78509104Y-116431904D01*
X78509104Y-116431904D02*
X78413866Y-116479523D01*
X78413866Y-116479523D02*
X78366247Y-116527142D01*
X78366247Y-116527142D02*
X78318628Y-116622380D01*
X78318628Y-116622380D02*
X78271009Y-116812856D01*
X78271009Y-116812856D02*
X78223390Y-116908094D01*
X78223390Y-116908094D02*
X78175771Y-116955713D01*
X78175771Y-116955713D02*
X78080533Y-117003332D01*
X78080533Y-117003332D02*
X77985295Y-117003332D01*
X77985295Y-117003332D02*
X77890057Y-116955713D01*
X77890057Y-116955713D02*
X77842438Y-116908094D01*
X77842438Y-116908094D02*
X77794819Y-116812856D01*
X77794819Y-116812856D02*
X77794819Y-116574761D01*
X77794819Y-116574761D02*
X77842438Y-116431904D01*
X77794819Y-116098570D02*
X78794819Y-115860475D01*
X78794819Y-115860475D02*
X78080533Y-115669999D01*
X78080533Y-115669999D02*
X78794819Y-115479523D01*
X78794819Y-115479523D02*
X77794819Y-115241428D01*
X78794819Y-114336666D02*
X78794819Y-114908094D01*
X78794819Y-114622380D02*
X77794819Y-114622380D01*
X77794819Y-114622380D02*
X77937676Y-114717618D01*
X77937676Y-114717618D02*
X78032914Y-114812856D01*
X78032914Y-114812856D02*
X78080533Y-114908094D01*
X206788095Y-80924819D02*
X206788095Y-81734342D01*
X206788095Y-81734342D02*
X206835714Y-81829580D01*
X206835714Y-81829580D02*
X206883333Y-81877200D01*
X206883333Y-81877200D02*
X206978571Y-81924819D01*
X206978571Y-81924819D02*
X207169047Y-81924819D01*
X207169047Y-81924819D02*
X207264285Y-81877200D01*
X207264285Y-81877200D02*
X207311904Y-81829580D01*
X207311904Y-81829580D02*
X207359523Y-81734342D01*
X207359523Y-81734342D02*
X207359523Y-80924819D01*
X207740476Y-80924819D02*
X208359523Y-80924819D01*
X208359523Y-80924819D02*
X208026190Y-81305771D01*
X208026190Y-81305771D02*
X208169047Y-81305771D01*
X208169047Y-81305771D02*
X208264285Y-81353390D01*
X208264285Y-81353390D02*
X208311904Y-81401009D01*
X208311904Y-81401009D02*
X208359523Y-81496247D01*
X208359523Y-81496247D02*
X208359523Y-81734342D01*
X208359523Y-81734342D02*
X208311904Y-81829580D01*
X208311904Y-81829580D02*
X208264285Y-81877200D01*
X208264285Y-81877200D02*
X208169047Y-81924819D01*
X208169047Y-81924819D02*
X207883333Y-81924819D01*
X207883333Y-81924819D02*
X207788095Y-81877200D01*
X207788095Y-81877200D02*
X207740476Y-81829580D01*
X105704819Y-82411904D02*
X106514342Y-82411904D01*
X106514342Y-82411904D02*
X106609580Y-82364285D01*
X106609580Y-82364285D02*
X106657200Y-82316666D01*
X106657200Y-82316666D02*
X106704819Y-82221428D01*
X106704819Y-82221428D02*
X106704819Y-82030952D01*
X106704819Y-82030952D02*
X106657200Y-81935714D01*
X106657200Y-81935714D02*
X106609580Y-81888095D01*
X106609580Y-81888095D02*
X106514342Y-81840476D01*
X106514342Y-81840476D02*
X105704819Y-81840476D01*
X105704819Y-81459523D02*
X105704819Y-80792857D01*
X105704819Y-80792857D02*
X106704819Y-81221428D01*
X150778095Y-119014819D02*
X150778095Y-119824342D01*
X150778095Y-119824342D02*
X150825714Y-119919580D01*
X150825714Y-119919580D02*
X150873333Y-119967200D01*
X150873333Y-119967200D02*
X150968571Y-120014819D01*
X150968571Y-120014819D02*
X151159047Y-120014819D01*
X151159047Y-120014819D02*
X151254285Y-119967200D01*
X151254285Y-119967200D02*
X151301904Y-119919580D01*
X151301904Y-119919580D02*
X151349523Y-119824342D01*
X151349523Y-119824342D02*
X151349523Y-119014819D01*
X152301904Y-119014819D02*
X151825714Y-119014819D01*
X151825714Y-119014819D02*
X151778095Y-119491009D01*
X151778095Y-119491009D02*
X151825714Y-119443390D01*
X151825714Y-119443390D02*
X151920952Y-119395771D01*
X151920952Y-119395771D02*
X152159047Y-119395771D01*
X152159047Y-119395771D02*
X152254285Y-119443390D01*
X152254285Y-119443390D02*
X152301904Y-119491009D01*
X152301904Y-119491009D02*
X152349523Y-119586247D01*
X152349523Y-119586247D02*
X152349523Y-119824342D01*
X152349523Y-119824342D02*
X152301904Y-119919580D01*
X152301904Y-119919580D02*
X152254285Y-119967200D01*
X152254285Y-119967200D02*
X152159047Y-120014819D01*
X152159047Y-120014819D02*
X151920952Y-120014819D01*
X151920952Y-120014819D02*
X151825714Y-119967200D01*
X151825714Y-119967200D02*
X151778095Y-119919580D01*
X86761905Y-55954819D02*
X86761905Y-56764342D01*
X86761905Y-56764342D02*
X86809524Y-56859580D01*
X86809524Y-56859580D02*
X86857143Y-56907200D01*
X86857143Y-56907200D02*
X86952381Y-56954819D01*
X86952381Y-56954819D02*
X87142857Y-56954819D01*
X87142857Y-56954819D02*
X87238095Y-56907200D01*
X87238095Y-56907200D02*
X87285714Y-56859580D01*
X87285714Y-56859580D02*
X87333333Y-56764342D01*
X87333333Y-56764342D02*
X87333333Y-55954819D01*
X88333333Y-56954819D02*
X87761905Y-56954819D01*
X88047619Y-56954819D02*
X88047619Y-55954819D01*
X88047619Y-55954819D02*
X87952381Y-56097676D01*
X87952381Y-56097676D02*
X87857143Y-56192914D01*
X87857143Y-56192914D02*
X87761905Y-56240533D01*
X88952381Y-55954819D02*
X89047619Y-55954819D01*
X89047619Y-55954819D02*
X89142857Y-56002438D01*
X89142857Y-56002438D02*
X89190476Y-56050057D01*
X89190476Y-56050057D02*
X89238095Y-56145295D01*
X89238095Y-56145295D02*
X89285714Y-56335771D01*
X89285714Y-56335771D02*
X89285714Y-56573866D01*
X89285714Y-56573866D02*
X89238095Y-56764342D01*
X89238095Y-56764342D02*
X89190476Y-56859580D01*
X89190476Y-56859580D02*
X89142857Y-56907200D01*
X89142857Y-56907200D02*
X89047619Y-56954819D01*
X89047619Y-56954819D02*
X88952381Y-56954819D01*
X88952381Y-56954819D02*
X88857143Y-56907200D01*
X88857143Y-56907200D02*
X88809524Y-56859580D01*
X88809524Y-56859580D02*
X88761905Y-56764342D01*
X88761905Y-56764342D02*
X88714286Y-56573866D01*
X88714286Y-56573866D02*
X88714286Y-56335771D01*
X88714286Y-56335771D02*
X88761905Y-56145295D01*
X88761905Y-56145295D02*
X88809524Y-56050057D01*
X88809524Y-56050057D02*
X88857143Y-56002438D01*
X88857143Y-56002438D02*
X88952381Y-55954819D01*
X139319047Y-56731009D02*
X139461904Y-56778628D01*
X139461904Y-56778628D02*
X139509523Y-56826247D01*
X139509523Y-56826247D02*
X139557142Y-56921485D01*
X139557142Y-56921485D02*
X139557142Y-57064342D01*
X139557142Y-57064342D02*
X139509523Y-57159580D01*
X139509523Y-57159580D02*
X139461904Y-57207200D01*
X139461904Y-57207200D02*
X139366666Y-57254819D01*
X139366666Y-57254819D02*
X138985714Y-57254819D01*
X138985714Y-57254819D02*
X138985714Y-56254819D01*
X138985714Y-56254819D02*
X139319047Y-56254819D01*
X139319047Y-56254819D02*
X139414285Y-56302438D01*
X139414285Y-56302438D02*
X139461904Y-56350057D01*
X139461904Y-56350057D02*
X139509523Y-56445295D01*
X139509523Y-56445295D02*
X139509523Y-56540533D01*
X139509523Y-56540533D02*
X139461904Y-56635771D01*
X139461904Y-56635771D02*
X139414285Y-56683390D01*
X139414285Y-56683390D02*
X139319047Y-56731009D01*
X139319047Y-56731009D02*
X138985714Y-56731009D01*
X139890476Y-56254819D02*
X140557142Y-56254819D01*
X140557142Y-56254819D02*
X139890476Y-57254819D01*
X139890476Y-57254819D02*
X140557142Y-57254819D01*
X141461904Y-57254819D02*
X140890476Y-57254819D01*
X141176190Y-57254819D02*
X141176190Y-56254819D01*
X141176190Y-56254819D02*
X141080952Y-56397676D01*
X141080952Y-56397676D02*
X140985714Y-56492914D01*
X140985714Y-56492914D02*
X140890476Y-56540533D01*
X136009048Y-61533866D02*
X136770953Y-61533866D01*
X136390000Y-61914819D02*
X136390000Y-61152914D01*
X138984819Y-140749404D02*
X139794342Y-140749404D01*
X139794342Y-140749404D02*
X139889580Y-140701785D01*
X139889580Y-140701785D02*
X139937200Y-140654166D01*
X139937200Y-140654166D02*
X139984819Y-140558928D01*
X139984819Y-140558928D02*
X139984819Y-140368452D01*
X139984819Y-140368452D02*
X139937200Y-140273214D01*
X139937200Y-140273214D02*
X139889580Y-140225595D01*
X139889580Y-140225595D02*
X139794342Y-140177976D01*
X139794342Y-140177976D02*
X138984819Y-140177976D01*
X139080057Y-139749404D02*
X139032438Y-139701785D01*
X139032438Y-139701785D02*
X138984819Y-139606547D01*
X138984819Y-139606547D02*
X138984819Y-139368452D01*
X138984819Y-139368452D02*
X139032438Y-139273214D01*
X139032438Y-139273214D02*
X139080057Y-139225595D01*
X139080057Y-139225595D02*
X139175295Y-139177976D01*
X139175295Y-139177976D02*
X139270533Y-139177976D01*
X139270533Y-139177976D02*
X139413390Y-139225595D01*
X139413390Y-139225595D02*
X139984819Y-139797023D01*
X139984819Y-139797023D02*
X139984819Y-139177976D01*
X183438095Y-93817319D02*
X183438095Y-94626842D01*
X183438095Y-94626842D02*
X183485714Y-94722080D01*
X183485714Y-94722080D02*
X183533333Y-94769700D01*
X183533333Y-94769700D02*
X183628571Y-94817319D01*
X183628571Y-94817319D02*
X183819047Y-94817319D01*
X183819047Y-94817319D02*
X183914285Y-94769700D01*
X183914285Y-94769700D02*
X183961904Y-94722080D01*
X183961904Y-94722080D02*
X184009523Y-94626842D01*
X184009523Y-94626842D02*
X184009523Y-93817319D01*
X184533333Y-94817319D02*
X184723809Y-94817319D01*
X184723809Y-94817319D02*
X184819047Y-94769700D01*
X184819047Y-94769700D02*
X184866666Y-94722080D01*
X184866666Y-94722080D02*
X184961904Y-94579223D01*
X184961904Y-94579223D02*
X185009523Y-94388747D01*
X185009523Y-94388747D02*
X185009523Y-94007795D01*
X185009523Y-94007795D02*
X184961904Y-93912557D01*
X184961904Y-93912557D02*
X184914285Y-93864938D01*
X184914285Y-93864938D02*
X184819047Y-93817319D01*
X184819047Y-93817319D02*
X184628571Y-93817319D01*
X184628571Y-93817319D02*
X184533333Y-93864938D01*
X184533333Y-93864938D02*
X184485714Y-93912557D01*
X184485714Y-93912557D02*
X184438095Y-94007795D01*
X184438095Y-94007795D02*
X184438095Y-94245890D01*
X184438095Y-94245890D02*
X184485714Y-94341128D01*
X184485714Y-94341128D02*
X184533333Y-94388747D01*
X184533333Y-94388747D02*
X184628571Y-94436366D01*
X184628571Y-94436366D02*
X184819047Y-94436366D01*
X184819047Y-94436366D02*
X184914285Y-94388747D01*
X184914285Y-94388747D02*
X184961904Y-94341128D01*
X184961904Y-94341128D02*
X185009523Y-94245890D01*
X85216666Y-95704819D02*
X85216666Y-96419104D01*
X85216666Y-96419104D02*
X85169047Y-96561961D01*
X85169047Y-96561961D02*
X85073809Y-96657200D01*
X85073809Y-96657200D02*
X84930952Y-96704819D01*
X84930952Y-96704819D02*
X84835714Y-96704819D01*
X85597619Y-95704819D02*
X86216666Y-95704819D01*
X86216666Y-95704819D02*
X85883333Y-96085771D01*
X85883333Y-96085771D02*
X86026190Y-96085771D01*
X86026190Y-96085771D02*
X86121428Y-96133390D01*
X86121428Y-96133390D02*
X86169047Y-96181009D01*
X86169047Y-96181009D02*
X86216666Y-96276247D01*
X86216666Y-96276247D02*
X86216666Y-96514342D01*
X86216666Y-96514342D02*
X86169047Y-96609580D01*
X86169047Y-96609580D02*
X86121428Y-96657200D01*
X86121428Y-96657200D02*
X86026190Y-96704819D01*
X86026190Y-96704819D02*
X85740476Y-96704819D01*
X85740476Y-96704819D02*
X85645238Y-96657200D01*
X85645238Y-96657200D02*
X85597619Y-96609580D01*
X138338095Y-93104819D02*
X138338095Y-93914342D01*
X138338095Y-93914342D02*
X138385714Y-94009580D01*
X138385714Y-94009580D02*
X138433333Y-94057200D01*
X138433333Y-94057200D02*
X138528571Y-94104819D01*
X138528571Y-94104819D02*
X138719047Y-94104819D01*
X138719047Y-94104819D02*
X138814285Y-94057200D01*
X138814285Y-94057200D02*
X138861904Y-94009580D01*
X138861904Y-94009580D02*
X138909523Y-93914342D01*
X138909523Y-93914342D02*
X138909523Y-93104819D01*
X139909523Y-94104819D02*
X139338095Y-94104819D01*
X139623809Y-94104819D02*
X139623809Y-93104819D01*
X139623809Y-93104819D02*
X139528571Y-93247676D01*
X139528571Y-93247676D02*
X139433333Y-93342914D01*
X139433333Y-93342914D02*
X139338095Y-93390533D01*
X121761905Y-107554819D02*
X121761905Y-108364342D01*
X121761905Y-108364342D02*
X121809524Y-108459580D01*
X121809524Y-108459580D02*
X121857143Y-108507200D01*
X121857143Y-108507200D02*
X121952381Y-108554819D01*
X121952381Y-108554819D02*
X122142857Y-108554819D01*
X122142857Y-108554819D02*
X122238095Y-108507200D01*
X122238095Y-108507200D02*
X122285714Y-108459580D01*
X122285714Y-108459580D02*
X122333333Y-108364342D01*
X122333333Y-108364342D02*
X122333333Y-107554819D01*
X123333333Y-108554819D02*
X122761905Y-108554819D01*
X123047619Y-108554819D02*
X123047619Y-107554819D01*
X123047619Y-107554819D02*
X122952381Y-107697676D01*
X122952381Y-107697676D02*
X122857143Y-107792914D01*
X122857143Y-107792914D02*
X122761905Y-107840533D01*
X124285714Y-108554819D02*
X123714286Y-108554819D01*
X124000000Y-108554819D02*
X124000000Y-107554819D01*
X124000000Y-107554819D02*
X123904762Y-107697676D01*
X123904762Y-107697676D02*
X123809524Y-107792914D01*
X123809524Y-107792914D02*
X123714286Y-107840533D01*
X172388095Y-58254819D02*
X172388095Y-59064342D01*
X172388095Y-59064342D02*
X172435714Y-59159580D01*
X172435714Y-59159580D02*
X172483333Y-59207200D01*
X172483333Y-59207200D02*
X172578571Y-59254819D01*
X172578571Y-59254819D02*
X172769047Y-59254819D01*
X172769047Y-59254819D02*
X172864285Y-59207200D01*
X172864285Y-59207200D02*
X172911904Y-59159580D01*
X172911904Y-59159580D02*
X172959523Y-59064342D01*
X172959523Y-59064342D02*
X172959523Y-58254819D01*
X173864285Y-58588152D02*
X173864285Y-59254819D01*
X173626190Y-58207200D02*
X173388095Y-58921485D01*
X173388095Y-58921485D02*
X174007142Y-58921485D01*
X164256905Y-102369819D02*
X164256905Y-101369819D01*
X164256905Y-101369819D02*
X164495000Y-101369819D01*
X164495000Y-101369819D02*
X164637857Y-101417438D01*
X164637857Y-101417438D02*
X164733095Y-101512676D01*
X164733095Y-101512676D02*
X164780714Y-101607914D01*
X164780714Y-101607914D02*
X164828333Y-101798390D01*
X164828333Y-101798390D02*
X164828333Y-101941247D01*
X164828333Y-101941247D02*
X164780714Y-102131723D01*
X164780714Y-102131723D02*
X164733095Y-102226961D01*
X164733095Y-102226961D02*
X164637857Y-102322200D01*
X164637857Y-102322200D02*
X164495000Y-102369819D01*
X164495000Y-102369819D02*
X164256905Y-102369819D01*
X165780714Y-102369819D02*
X165209286Y-102369819D01*
X165495000Y-102369819D02*
X165495000Y-101369819D01*
X165495000Y-101369819D02*
X165399762Y-101512676D01*
X165399762Y-101512676D02*
X165304524Y-101607914D01*
X165304524Y-101607914D02*
X165209286Y-101655533D01*
X200854819Y-130414285D02*
X199854819Y-130414285D01*
X199854819Y-130414285D02*
X199854819Y-130176190D01*
X199854819Y-130176190D02*
X199902438Y-130033333D01*
X199902438Y-130033333D02*
X199997676Y-129938095D01*
X199997676Y-129938095D02*
X200092914Y-129890476D01*
X200092914Y-129890476D02*
X200283390Y-129842857D01*
X200283390Y-129842857D02*
X200426247Y-129842857D01*
X200426247Y-129842857D02*
X200616723Y-129890476D01*
X200616723Y-129890476D02*
X200711961Y-129938095D01*
X200711961Y-129938095D02*
X200807200Y-130033333D01*
X200807200Y-130033333D02*
X200854819Y-130176190D01*
X200854819Y-130176190D02*
X200854819Y-130414285D01*
X200807200Y-129461904D02*
X200854819Y-129319047D01*
X200854819Y-129319047D02*
X200854819Y-129080952D01*
X200854819Y-129080952D02*
X200807200Y-128985714D01*
X200807200Y-128985714D02*
X200759580Y-128938095D01*
X200759580Y-128938095D02*
X200664342Y-128890476D01*
X200664342Y-128890476D02*
X200569104Y-128890476D01*
X200569104Y-128890476D02*
X200473866Y-128938095D01*
X200473866Y-128938095D02*
X200426247Y-128985714D01*
X200426247Y-128985714D02*
X200378628Y-129080952D01*
X200378628Y-129080952D02*
X200331009Y-129271428D01*
X200331009Y-129271428D02*
X200283390Y-129366666D01*
X200283390Y-129366666D02*
X200235771Y-129414285D01*
X200235771Y-129414285D02*
X200140533Y-129461904D01*
X200140533Y-129461904D02*
X200045295Y-129461904D01*
X200045295Y-129461904D02*
X199950057Y-129414285D01*
X199950057Y-129414285D02*
X199902438Y-129366666D01*
X199902438Y-129366666D02*
X199854819Y-129271428D01*
X199854819Y-129271428D02*
X199854819Y-129033333D01*
X199854819Y-129033333D02*
X199902438Y-128890476D01*
X200854819Y-127938095D02*
X200854819Y-128509523D01*
X200854819Y-128223809D02*
X199854819Y-128223809D01*
X199854819Y-128223809D02*
X199997676Y-128319047D01*
X199997676Y-128319047D02*
X200092914Y-128414285D01*
X200092914Y-128414285D02*
X200140533Y-128509523D01*
D11*
%TO.C,U8*%
X139025000Y-80345000D02*
X137075000Y-80345000D01*
X139025000Y-80345000D02*
X140975000Y-80345000D01*
X139025000Y-85465000D02*
X137075000Y-85465000D01*
X139025000Y-85465000D02*
X140975000Y-85465000D01*
X136325000Y-80440000D02*
X136085000Y-80110000D01*
X136565000Y-80110000D01*
X136325000Y-80440000D01*
G36*
X136325000Y-80440000D02*
G01*
X136085000Y-80110000D01*
X136565000Y-80110000D01*
X136325000Y-80440000D01*
G37*
%TO.C,SW1*%
X80140000Y-109140000D02*
X82650000Y-109140000D01*
X80140000Y-121360000D02*
X80140000Y-109140000D01*
X80140000Y-121360000D02*
X82650000Y-121360000D01*
X84950000Y-109140000D02*
X87550000Y-109140000D01*
X84950000Y-121360000D02*
X87550000Y-121360000D01*
X89850000Y-109140000D02*
X92360000Y-109140000D01*
X89850000Y-121360000D02*
X92360000Y-121360000D01*
X92360000Y-109140000D02*
X92360000Y-121360000D01*
X89800000Y-115250000D02*
G75*
G02*
X82700000Y-115250000I-3550000J0D01*
G01*
X82700000Y-115250000D02*
G75*
G02*
X89800000Y-115250000I3550000J0D01*
G01*
%TO.C,U3*%
X204940000Y-83415000D02*
X204940000Y-82900000D01*
X204940000Y-87880000D02*
X204940000Y-87125000D01*
X206965000Y-82660000D02*
X205240000Y-82660000D01*
X206965000Y-87880000D02*
X204940000Y-87880000D01*
X208135000Y-82660000D02*
X210160000Y-82660000D01*
X208135000Y-87880000D02*
X210160000Y-87880000D01*
X210160000Y-82660000D02*
X210160000Y-83415000D01*
X210160000Y-87880000D02*
X210160000Y-87125000D01*
X204940000Y-82660000D02*
X204700000Y-82330000D01*
X205180000Y-82330000D01*
X204940000Y-82660000D01*
G36*
X204940000Y-82660000D02*
G01*
X204700000Y-82330000D01*
X205180000Y-82330000D01*
X204940000Y-82660000D01*
G37*
%TO.C,U7*%
X107390000Y-79790000D02*
X107620000Y-79790000D01*
X107390000Y-80520000D02*
X107390000Y-79790000D01*
X107390000Y-82780000D02*
X107390000Y-83210000D01*
X111880000Y-79790000D02*
X112110000Y-79790000D01*
X111880000Y-83510000D02*
X112110000Y-83510000D01*
X112110000Y-80520000D02*
X112110000Y-79790000D01*
X112110000Y-83510000D02*
X112110000Y-82780000D01*
X107390000Y-83510000D02*
X107060000Y-83750000D01*
X107060000Y-83270000D01*
X107390000Y-83510000D01*
G36*
X107390000Y-83510000D02*
G01*
X107060000Y-83750000D01*
X107060000Y-83270000D01*
X107390000Y-83510000D01*
G37*
D12*
%TO.C,U5*%
X150175000Y-123375000D02*
X150175000Y-123225000D01*
X150175000Y-123385000D02*
X150325000Y-123385000D01*
X152725000Y-120675000D02*
X152875000Y-120675000D01*
X152875000Y-120675000D02*
X152875000Y-120825000D01*
X152875000Y-123375000D02*
X152725000Y-123375000D01*
X152875000Y-123375000D02*
X152875000Y-123225000D01*
D11*
X150175000Y-120675000D02*
X149815000Y-120675000D01*
X150175000Y-120315000D01*
X150175000Y-120675000D01*
G36*
X150175000Y-120675000D02*
G01*
X149815000Y-120675000D01*
X150175000Y-120315000D01*
X150175000Y-120675000D01*
G37*
%TO.C,U10*%
X85840000Y-57400000D02*
X85840000Y-59400000D01*
X85840000Y-57400000D02*
X87450000Y-57400000D01*
X86120000Y-69940000D02*
X86120000Y-57690000D01*
X86130000Y-57680000D02*
X91870000Y-57680000D01*
X91880000Y-57680000D02*
X91880000Y-69940000D01*
X91880000Y-69940000D02*
X86120000Y-69940000D01*
%TO.C,BZ1*%
X146300000Y-64000000D02*
G75*
G02*
X134100000Y-64000000I-6100000J0D01*
G01*
X134100000Y-64000000D02*
G75*
G02*
X146300000Y-64000000I6100000J0D01*
G01*
%TO.C,U2*%
X132090000Y-136877500D02*
X132840000Y-136877500D01*
X132090000Y-137627500D02*
X132090000Y-136877500D01*
X132090000Y-142347500D02*
X132090000Y-143097500D01*
X132090000Y-143097500D02*
X132840000Y-143097500D01*
X137560000Y-136877500D02*
X138070000Y-136877500D01*
X138310000Y-137627500D02*
X138310000Y-137177500D01*
X138310000Y-142347500D02*
X138310000Y-143097500D01*
X138310000Y-143097500D02*
X137560000Y-143097500D01*
X138640000Y-137117500D02*
X138310000Y-136877500D01*
X138640000Y-136637500D01*
X138640000Y-137117500D01*
G36*
X138640000Y-137117500D02*
G01*
X138310000Y-136877500D01*
X138640000Y-136637500D01*
X138640000Y-137117500D01*
G37*
%TO.C,U9*%
X182490000Y-95452500D02*
X182490000Y-98312500D01*
X185910000Y-95452500D02*
X185910000Y-98312500D01*
X182600000Y-95212500D02*
X182320000Y-95212500D01*
X182600000Y-94932500D01*
X182600000Y-95212500D01*
G36*
X182600000Y-95212500D02*
G01*
X182320000Y-95212500D01*
X182600000Y-94932500D01*
X182600000Y-95212500D01*
G37*
%TO.C,J3*%
X80200000Y-85900000D02*
X94900000Y-85900000D01*
X80200000Y-95100000D02*
X80200000Y-85900000D01*
X89000000Y-95100000D02*
X80200000Y-95100000D01*
X94050000Y-85700000D02*
X95100000Y-85700000D01*
X94900000Y-85900000D02*
X94900000Y-88500000D01*
X94900000Y-92400000D02*
X94900000Y-95100000D01*
X94900000Y-95100000D02*
X93000000Y-95100000D01*
X95100000Y-86750000D02*
X95100000Y-85700000D01*
%TO.C,U1*%
X135490000Y-95490000D02*
X135490000Y-95080000D01*
X135490000Y-102060000D02*
X135490000Y-101410000D01*
X136140000Y-94840000D02*
X135790000Y-94840000D01*
X136140000Y-102060000D02*
X135490000Y-102060000D01*
X142060000Y-94840000D02*
X142710000Y-94840000D01*
X142060000Y-102060000D02*
X142710000Y-102060000D01*
X142710000Y-94840000D02*
X142710000Y-95490000D01*
X142710000Y-102060000D02*
X142710000Y-101410000D01*
X135490000Y-94840000D02*
X135250000Y-94510000D01*
X135730000Y-94510000D01*
X135490000Y-94840000D01*
G36*
X135490000Y-94840000D02*
G01*
X135250000Y-94510000D01*
X135730000Y-94510000D01*
X135490000Y-94840000D01*
G37*
%TO.C,U11*%
X123000000Y-108940000D02*
X121050000Y-108940000D01*
X123000000Y-108940000D02*
X124950000Y-108940000D01*
X123000000Y-114060000D02*
X121050000Y-114060000D01*
X123000000Y-114060000D02*
X124950000Y-114060000D01*
X120300000Y-109035000D02*
X120060000Y-108705000D01*
X120540000Y-108705000D01*
X120300000Y-109035000D01*
G36*
X120300000Y-109035000D02*
G01*
X120060000Y-108705000D01*
X120540000Y-108705000D01*
X120300000Y-109035000D01*
G37*
%TO.C,U4*%
X171300000Y-59890000D02*
X175060000Y-59890000D01*
X171300000Y-66710000D02*
X175060000Y-66710000D01*
X175060000Y-59890000D02*
X175060000Y-61150000D01*
X175060000Y-66710000D02*
X175060000Y-65450000D01*
X170020000Y-59990000D02*
X169780000Y-59660000D01*
X170260000Y-59660000D01*
X170020000Y-59990000D01*
G36*
X170020000Y-59990000D02*
G01*
X169780000Y-59660000D01*
X170260000Y-59660000D01*
X170020000Y-59990000D01*
G37*
%TO.C,D1*%
X163310000Y-102605000D02*
X163310000Y-104525000D01*
X163310000Y-104525000D02*
X165995000Y-104525000D01*
X165995000Y-102605000D02*
X163310000Y-102605000D01*
%TO.C,DS1*%
X201350000Y-118400000D02*
X201350000Y-140700000D01*
X201350000Y-140700000D02*
X203500000Y-140700000D01*
X203500000Y-118400000D02*
X201350000Y-118400000D01*
D12*
X206600000Y-121550000D02*
G75*
G02*
X205900000Y-121550000I-350000J0D01*
G01*
X205900000Y-121550000D02*
G75*
G02*
X206600000Y-121550000I350000J0D01*
G01*
X206600000Y-137550000D02*
G75*
G02*
X205900000Y-137550000I-350000J0D01*
G01*
X205900000Y-137550000D02*
G75*
G02*
X206600000Y-137550000I350000J0D01*
G01*
%TD*%
M02*
