%TF.GenerationSoftware,KiCad,Pcbnew,9.0.0*%
%TF.CreationDate,2025-04-03T13:22:32+05:30*%
%TF.ProjectId,Air Quality Monitor,41697220-5175-4616-9c69-7479204d6f6e,rev?*%
%TF.SameCoordinates,Original*%
%TF.FileFunction,Paste,Top*%
%TF.FilePolarity,Positive*%
%FSLAX46Y46*%
G04 Gerber Fmt 4.6, Leading zero omitted, Abs format (unit mm)*
G04 Created by KiCad (PCBNEW 9.0.0) date 2025-04-03 13:22:32*
%MOMM*%
%LPD*%
G01*
G04 APERTURE LIST*
G04 Aperture macros list*
%AMRoundRect*
0 Rectangle with rounded corners*
0 $1 Rounding radius*
0 $2 $3 $4 $5 $6 $7 $8 $9 X,Y pos of 4 corners*
0 Add a 4 corners polygon primitive as box body*
4,1,4,$2,$3,$4,$5,$6,$7,$8,$9,$2,$3,0*
0 Add four circle primitives for the rounded corners*
1,1,$1+$1,$2,$3*
1,1,$1+$1,$4,$5*
1,1,$1+$1,$6,$7*
1,1,$1+$1,$8,$9*
0 Add four rect primitives between the rounded corners*
20,1,$1+$1,$2,$3,$4,$5,0*
20,1,$1+$1,$4,$5,$6,$7,0*
20,1,$1+$1,$6,$7,$8,$9,0*
20,1,$1+$1,$8,$9,$2,$3,0*%
G04 Aperture macros list end*
%ADD10RoundRect,0.150000X-0.825000X-0.150000X0.825000X-0.150000X0.825000X0.150000X-0.825000X0.150000X0*%
%ADD11RoundRect,0.162500X-0.637500X-0.162500X0.637500X-0.162500X0.637500X0.162500X-0.637500X0.162500X0*%
%ADD12RoundRect,0.162500X-0.162500X-0.637500X0.162500X-0.637500X0.162500X0.637500X-0.162500X0.637500X0*%
%ADD13R,0.850000X0.920000*%
%ADD14R,0.250000X0.750000*%
%ADD15RoundRect,0.050400X0.249600X-0.069600X0.249600X0.069600X-0.249600X0.069600X-0.249600X-0.069600X0*%
%ADD16RoundRect,0.050400X0.069600X-0.249600X0.069600X0.249600X-0.069600X0.249600X-0.069600X-0.249600X0*%
%ADD17RoundRect,0.050000X0.250000X-0.050000X0.250000X0.050000X-0.250000X0.050000X-0.250000X-0.050000X0*%
%ADD18R,0.350000X0.500000*%
%ADD19RoundRect,0.249999X-0.395001X0.395001X-0.395001X-0.395001X0.395001X-0.395001X0.395001X0.395001X0*%
%ADD20RoundRect,0.075000X-0.075000X0.312500X-0.075000X-0.312500X0.075000X-0.312500X0.075000X0.312500X0*%
%ADD21RoundRect,0.075000X-0.312500X0.075000X-0.312500X-0.075000X0.312500X-0.075000X0.312500X0.075000X0*%
%ADD22RoundRect,0.125000X-0.125000X-0.137500X0.125000X-0.137500X0.125000X0.137500X-0.125000X0.137500X0*%
%ADD23RoundRect,0.250000X-0.285000X-0.285000X0.285000X-0.285000X0.285000X0.285000X-0.285000X0.285000X0*%
%ADD24RoundRect,0.050000X-0.350000X-0.050000X0.350000X-0.050000X0.350000X0.050000X-0.350000X0.050000X0*%
%ADD25RoundRect,0.050000X-0.050000X-0.350000X0.050000X-0.350000X0.050000X0.350000X-0.050000X0.350000X0*%
%ADD26RoundRect,0.375000X-0.625000X-0.375000X0.625000X-0.375000X0.625000X0.375000X-0.625000X0.375000X0*%
%ADD27RoundRect,0.500000X-0.500000X-1.400000X0.500000X-1.400000X0.500000X1.400000X-0.500000X1.400000X0*%
%ADD28RoundRect,0.243750X-0.243750X-0.456250X0.243750X-0.456250X0.243750X0.456250X-0.243750X0.456250X0*%
%ADD29R,2.000000X0.400000*%
G04 APERTURE END LIST*
D10*
%TO.C,U8*%
X136550000Y-81000000D03*
X136550000Y-82270000D03*
X136550000Y-83540000D03*
X136550000Y-84810000D03*
X141500000Y-84810000D03*
X141500000Y-83540000D03*
X141500000Y-82270000D03*
X141500000Y-81000000D03*
%TD*%
D11*
%TO.C,U3*%
X205500000Y-84000000D03*
X205500000Y-85270000D03*
X205500000Y-86540000D03*
D12*
X207550000Y-87320000D03*
D11*
X209600000Y-86540000D03*
X209600000Y-85270000D03*
X209600000Y-84000000D03*
D12*
X207550000Y-83220000D03*
%TD*%
D13*
%TO.C,U7*%
X108700000Y-82210000D03*
X109750000Y-82210000D03*
X110800000Y-82210000D03*
D14*
X107950000Y-81650000D03*
X111550000Y-81650000D03*
D13*
X108700000Y-81090000D03*
X109750000Y-81090000D03*
X110800000Y-81090000D03*
D15*
X107600000Y-82400000D03*
D16*
X108000000Y-83300000D03*
X108500000Y-83300000D03*
X109000000Y-83300000D03*
X109500000Y-83300000D03*
X110000000Y-83300000D03*
X110500000Y-83300000D03*
X111000000Y-83300000D03*
X111500000Y-83300000D03*
D15*
X111900000Y-82400000D03*
X111900000Y-80900000D03*
D16*
X111500000Y-80000000D03*
X111000000Y-80000000D03*
X110500000Y-80000000D03*
X110000000Y-80000000D03*
X109500000Y-80000000D03*
X109000000Y-80000000D03*
X108500000Y-80000000D03*
X108000000Y-80000000D03*
D15*
X107600000Y-80900000D03*
D17*
X107600000Y-81925000D03*
X111900000Y-81925000D03*
X107600000Y-81375000D03*
X111900000Y-81375000D03*
%TD*%
D18*
%TO.C,U5*%
X150550000Y-121000000D03*
X151200000Y-121000000D03*
X151850000Y-121000000D03*
X152500000Y-121000000D03*
X152500000Y-123050000D03*
X151850000Y-123050000D03*
X151200000Y-123050000D03*
X150550000Y-123050000D03*
%TD*%
D19*
%TO.C,U2*%
X136800000Y-138387500D03*
X135200000Y-138387500D03*
X133600000Y-138387500D03*
X136800000Y-139987500D03*
X135200000Y-139987500D03*
X133600000Y-139987500D03*
X136800000Y-141587500D03*
X135200000Y-141587500D03*
X133600000Y-141587500D03*
D20*
X137150000Y-137000000D03*
X136500000Y-137000000D03*
X135850000Y-137000000D03*
X135200000Y-137000000D03*
X134550000Y-137000000D03*
X133900000Y-137000000D03*
X133250000Y-137000000D03*
D21*
X132212500Y-138037500D03*
X132212500Y-138687500D03*
X132212500Y-139337500D03*
X132212500Y-139987500D03*
X132212500Y-140637500D03*
X132212500Y-141287500D03*
X132212500Y-141937500D03*
D20*
X133250000Y-142975000D03*
X133900000Y-142975000D03*
X134550000Y-142975000D03*
X135200000Y-142975000D03*
X135850000Y-142975000D03*
X136500000Y-142975000D03*
X137150000Y-142975000D03*
D21*
X138187500Y-141937500D03*
X138187500Y-141287500D03*
X138187500Y-140637500D03*
X138187500Y-139987500D03*
X138187500Y-139337500D03*
X138187500Y-138687500D03*
X138187500Y-138037500D03*
%TD*%
D22*
%TO.C,U9*%
X183000000Y-95625000D03*
X183800000Y-95625000D03*
X184600000Y-95625000D03*
X185400000Y-95625000D03*
X185400000Y-98000000D03*
X184600000Y-98000000D03*
X183800000Y-98000000D03*
X183000000Y-98000000D03*
%TD*%
D23*
%TO.C,U1*%
X137770000Y-97120000D03*
X137770000Y-98450000D03*
X137770000Y-99780000D03*
X139100000Y-97120000D03*
X139100000Y-98450000D03*
X139100000Y-99780000D03*
X140430000Y-97120000D03*
X140430000Y-98450000D03*
X140430000Y-99780000D03*
D24*
X135650000Y-95850000D03*
X135650000Y-96250000D03*
X135650000Y-96650000D03*
X135650000Y-97050000D03*
X135650000Y-97450000D03*
X135650000Y-97850000D03*
X135650000Y-98250000D03*
X135650000Y-98650000D03*
X135650000Y-99050000D03*
X135650000Y-99450000D03*
X135650000Y-99850000D03*
X135650000Y-100250000D03*
X135650000Y-100650000D03*
X135650000Y-101050000D03*
D25*
X136500000Y-101900000D03*
X136900000Y-101900000D03*
X137300000Y-101900000D03*
X137700000Y-101900000D03*
X138100000Y-101900000D03*
X138500000Y-101900000D03*
X138900000Y-101900000D03*
X139300000Y-101900000D03*
X139700000Y-101900000D03*
X140100000Y-101900000D03*
X140500000Y-101900000D03*
X140900000Y-101900000D03*
X141300000Y-101900000D03*
X141700000Y-101900000D03*
D24*
X142550000Y-101050000D03*
X142550000Y-100650000D03*
X142550000Y-100250000D03*
X142550000Y-99850000D03*
X142550000Y-99450000D03*
X142550000Y-99050000D03*
X142550000Y-98650000D03*
X142550000Y-98250000D03*
X142550000Y-97850000D03*
X142550000Y-97450000D03*
X142550000Y-97050000D03*
X142550000Y-96650000D03*
X142550000Y-96250000D03*
X142550000Y-95850000D03*
D25*
X141700000Y-95000000D03*
X141300000Y-95000000D03*
X140900000Y-95000000D03*
X140500000Y-95000000D03*
X140100000Y-95000000D03*
X139700000Y-95000000D03*
X139300000Y-95000000D03*
X138900000Y-95000000D03*
X138500000Y-95000000D03*
X138100000Y-95000000D03*
X137700000Y-95000000D03*
X137300000Y-95000000D03*
X136900000Y-95000000D03*
X136500000Y-95000000D03*
%TD*%
D10*
%TO.C,U11*%
X120525000Y-109595000D03*
X120525000Y-110865000D03*
X120525000Y-112135000D03*
X120525000Y-113405000D03*
X125475000Y-113405000D03*
X125475000Y-112135000D03*
X125475000Y-110865000D03*
X125475000Y-109595000D03*
%TD*%
D26*
%TO.C,U4*%
X170000000Y-61000000D03*
X170000000Y-63300000D03*
D27*
X176300000Y-63300000D03*
D26*
X170000000Y-65600000D03*
%TD*%
D28*
%TO.C,D1*%
X164057500Y-103565000D03*
X165932500Y-103565000D03*
%TD*%
D29*
%TO.C,DS1*%
X202500000Y-119400000D03*
X202500000Y-120100000D03*
X202500000Y-120800000D03*
X202500000Y-121500000D03*
X202500000Y-122200000D03*
X202500000Y-122900000D03*
X202500000Y-123600000D03*
X202500000Y-124300000D03*
X202500000Y-125000000D03*
X202500000Y-125700000D03*
X202500000Y-126400000D03*
X202500000Y-127100000D03*
X202500000Y-127800000D03*
X202500000Y-128500000D03*
X202500000Y-129200000D03*
X202500000Y-129900000D03*
X202500000Y-130600000D03*
X202500000Y-131300000D03*
X202500000Y-132000000D03*
X202500000Y-132700000D03*
X202500000Y-133400000D03*
X202500000Y-134100000D03*
X202500000Y-134800000D03*
X202500000Y-135500000D03*
X202500000Y-136200000D03*
X202500000Y-136900000D03*
X202500000Y-137600000D03*
X202500000Y-138300000D03*
X202500000Y-139000000D03*
X202500000Y-139700000D03*
%TD*%
M02*
