%TF.GenerationSoftware,KiCad,Pcbnew,9.0.0*%
%TF.CreationDate,2025-04-03T13:22:32+05:30*%
%TF.ProjectId,Air Quality Monitor,41697220-5175-4616-9c69-7479204d6f6e,rev?*%
%TF.SameCoordinates,Original*%
%TF.FileFunction,Copper,L2,Bot*%
%TF.FilePolarity,Positive*%
%FSLAX46Y46*%
G04 Gerber Fmt 4.6, Leading zero omitted, Abs format (unit mm)*
G04 Created by KiCad (PCBNEW 9.0.0) date 2025-04-03 13:22:32*
%MOMM*%
%LPD*%
G01*
G04 APERTURE LIST*
G04 Aperture macros list*
%AMRoundRect*
0 Rectangle with rounded corners*
0 $1 Rounding radius*
0 $2 $3 $4 $5 $6 $7 $8 $9 X,Y pos of 4 corners*
0 Add a 4 corners polygon primitive as box body*
4,1,4,$2,$3,$4,$5,$6,$7,$8,$9,$2,$3,0*
0 Add four circle primitives for the rounded corners*
1,1,$1+$1,$2,$3*
1,1,$1+$1,$4,$5*
1,1,$1+$1,$6,$7*
1,1,$1+$1,$8,$9*
0 Add four rect primitives between the rounded corners*
20,1,$1+$1,$2,$3,$4,$5,0*
20,1,$1+$1,$4,$5,$6,$7,0*
20,1,$1+$1,$6,$7,$8,$9,0*
20,1,$1+$1,$8,$9,$2,$3,0*%
G04 Aperture macros list end*
%TA.AperFunction,Conductor*%
%ADD10C,0.200000*%
%TD*%
%TA.AperFunction,ComponentPad*%
%ADD11O,1.900000X3.200000*%
%TD*%
%TA.AperFunction,ComponentPad*%
%ADD12C,0.500000*%
%TD*%
%TA.AperFunction,ComponentPad*%
%ADD13R,1.500000X1.500000*%
%TD*%
%TA.AperFunction,ComponentPad*%
%ADD14C,1.500000*%
%TD*%
%TA.AperFunction,ComponentPad*%
%ADD15R,2.000000X2.000000*%
%TD*%
%TA.AperFunction,ComponentPad*%
%ADD16C,2.000000*%
%TD*%
%TA.AperFunction,ComponentPad*%
%ADD17R,3.500000X3.500000*%
%TD*%
%TA.AperFunction,ComponentPad*%
%ADD18RoundRect,0.750000X-0.750000X-1.000000X0.750000X-1.000000X0.750000X1.000000X-0.750000X1.000000X0*%
%TD*%
%TA.AperFunction,ComponentPad*%
%ADD19RoundRect,0.875000X-0.875000X-0.875000X0.875000X-0.875000X0.875000X0.875000X-0.875000X0.875000X0*%
%TD*%
%TA.AperFunction,ViaPad*%
%ADD20C,0.600000*%
%TD*%
G04 APERTURE END LIST*
D10*
%TO.N,+3.3V*%
X200025000Y-126365000D02*
X197485000Y-132715000D01*
%TO.N,/10*%
X136500000Y-112000000D02*
X140000000Y-112500000D01*
%TO.N,/12*%
X179705000Y-116205000D02*
X179070000Y-117475000D01*
%TO.N,GND*%
X104000000Y-84000000D02*
X102500000Y-85000000D01*
%TO.N,/38*%
X199390000Y-129540000D02*
X203000000Y-127932900D01*
%TO.N,GND*%
X137160000Y-88265000D02*
X137160000Y-86995000D01*
X183515000Y-93345000D02*
X181610000Y-94615000D01*
X197485000Y-93980000D02*
X199390000Y-95885000D01*
%TO.N,+3.3V*%
X179070000Y-97155000D02*
X182245000Y-99060000D01*
%TO.N,/10*%
X133000000Y-111000000D02*
X134500000Y-111500000D01*
%TO.N,/36*%
X134000000Y-87500000D02*
X135500000Y-88000000D01*
%TO.N,/12*%
X186690000Y-97155000D02*
X186690000Y-100330000D01*
%TO.N,GND*%
X144145000Y-107315000D02*
X146050000Y-111125000D01*
X137750000Y-78750000D02*
X134250000Y-78250000D01*
%TO.N,/37*%
X144000000Y-94000000D02*
X146000000Y-93500000D01*
%TO.N,/33*%
X168500000Y-107500000D02*
X172000000Y-109500000D01*
%TO.N,/19*%
X138500000Y-108000000D02*
X136500000Y-108600000D01*
%TO.N,/13*%
X148590000Y-130175000D02*
X149225000Y-128905000D01*
%TO.N,/4*%
X115500000Y-82000000D02*
X115000000Y-80500000D01*
%TO.N,+3.3V*%
X150495000Y-124460000D02*
X152400000Y-124460000D01*
%TO.N,/11*%
X163830000Y-120650000D02*
X164465000Y-118745000D01*
%TO.N,/6*%
X111500000Y-85500000D02*
X111500000Y-87500000D01*
%TO.N,GND*%
X129540000Y-101600000D02*
X130175000Y-97155000D01*
%TO.N,/5*%
X115000000Y-85500000D02*
X115500000Y-87500000D01*
%TO.N,/34*%
X181610000Y-91440000D02*
X184150000Y-91440000D01*
%TO.N,/LED*%
X155500000Y-96000000D02*
X153000000Y-94500000D01*
%TO.N,/35*%
X181610000Y-84455000D02*
X183515000Y-84455000D01*
%TO.N,/11*%
X189230000Y-98425000D02*
X187960000Y-96520000D01*
%TO.N,+3.3V*%
X160020000Y-106045000D02*
X162560000Y-104775000D01*
%TO.N,/11*%
X134500000Y-109000000D02*
X138500000Y-110000000D01*
%TO.N,/4*%
X117500000Y-87500000D02*
X117000000Y-85500000D01*
%TO.N,GND*%
X149225000Y-116840000D02*
X148590000Y-119380000D01*
%TO.N,/36*%
X129500000Y-80500000D02*
X130500000Y-81000000D01*
%TO.N,/11*%
X159385000Y-118110000D02*
X161925000Y-120015000D01*
%TD*%
D11*
%TO.P,SW1,1,1*%
%TO.N,GND*%
X83750000Y-121500000D03*
X83750000Y-109000000D03*
%TO.P,SW1,2,2*%
%TO.N,/19*%
X88750000Y-121500000D03*
X88750000Y-109000000D03*
%TD*%
D12*
%TO.P,U7,21,GND*%
%TO.N,GND*%
X109225000Y-82425000D03*
X110275000Y-82425000D03*
X108475000Y-81650000D03*
X109225000Y-81650000D03*
X110275000Y-81650000D03*
X111025000Y-81650000D03*
X109225000Y-80875000D03*
X110275000Y-80875000D03*
%TD*%
D13*
%TO.P,U10,1,VDD*%
%TO.N,+3.3V*%
X89000000Y-60000000D03*
D14*
%TO.P,U10,2,DATA*%
%TO.N,/36*%
X89000000Y-62540000D03*
%TO.P,U10,3,NC*%
%TO.N,unconnected-(U10-NC-Pad3)*%
X89000000Y-65080000D03*
%TO.P,U10,4,GND*%
%TO.N,GND*%
X89000000Y-67620000D03*
%TD*%
D15*
%TO.P,BZ1,1,+*%
%TO.N,+3.3V*%
X136400000Y-64000000D03*
D16*
%TO.P,BZ1,2,-*%
%TO.N,/18*%
X144000000Y-64000000D03*
%TD*%
D17*
%TO.P,J3,1*%
%TO.N,+12V*%
X94000000Y-90500000D03*
D18*
%TO.P,J3,2*%
%TO.N,GND*%
X88000000Y-90500000D03*
D19*
%TO.P,J3,3*%
%TO.N,N/C*%
X91000000Y-95200000D03*
%TD*%
D20*
%TO.N,+3.3V*%
X197485000Y-132715000D03*
X200025000Y-126365000D03*
X158115000Y-107315000D03*
X162560000Y-104775000D03*
X143000000Y-104000000D03*
X160020000Y-106045000D03*
X140000000Y-105000000D03*
X150500000Y-123000000D03*
X152400000Y-124460000D03*
X182245000Y-99060000D03*
X179070000Y-97155000D03*
X150495000Y-124460000D03*
%TO.N,/LED*%
X155500000Y-96000000D03*
X153000000Y-94500000D03*
%TO.N,/38*%
X199390000Y-129540000D03*
X142500000Y-93000000D03*
%TO.N,GND*%
X129540000Y-101600000D03*
X144145000Y-107315000D03*
X183515000Y-93345000D03*
X148590000Y-119380000D03*
X184150000Y-97155000D03*
X149225000Y-116840000D03*
X146050000Y-111125000D03*
X104000000Y-84000000D03*
X137160000Y-86995000D03*
X197485000Y-93980000D03*
X137890781Y-78890781D03*
X102500000Y-85000000D03*
X181610000Y-96520000D03*
X181610000Y-94615000D03*
X134250000Y-78250000D03*
X199390000Y-95885000D03*
X180975000Y-95250000D03*
X183515000Y-99060000D03*
%TO.N,/37*%
X194945000Y-124460000D03*
X144000000Y-94000000D03*
%TO.N,/33*%
X172000000Y-109500000D03*
X168500000Y-107500000D03*
%TO.N,/12*%
X179070000Y-117475000D03*
X186690000Y-100330000D03*
X179705000Y-116205000D03*
X186690000Y-97155000D03*
%TO.N,/11*%
X189230000Y-98425000D03*
X163830000Y-120650000D03*
X134500000Y-109000000D03*
X159385000Y-118110000D03*
X138500000Y-110000000D03*
X187960000Y-96520000D03*
X164465000Y-118745000D03*
X161925000Y-120015000D03*
%TO.N,/19*%
X136500000Y-108500000D03*
X142500000Y-105500000D03*
%TO.N,/4*%
X117500000Y-87500000D03*
X117000000Y-85500000D03*
X115000000Y-80500000D03*
X115500000Y-82000000D03*
%TO.N,/10*%
X136500000Y-112000000D03*
X134500000Y-111500000D03*
X133000000Y-111000000D03*
X140000000Y-112500000D03*
%TO.N,/13*%
X149225000Y-128905000D03*
X148590000Y-130175000D03*
%TO.N,/36*%
X135500000Y-88000000D03*
X132000000Y-84500000D03*
X129500000Y-80500000D03*
X134000000Y-87500000D03*
%TO.N,/34*%
X181610000Y-91440000D03*
X184150000Y-91440000D03*
%TO.N,/6*%
X111500000Y-87500000D03*
X111500000Y-85500000D03*
%TO.N,/35*%
X183515000Y-84455000D03*
X181610000Y-84455000D03*
%TO.N,/5*%
X115000000Y-85500000D03*
X115500000Y-87500000D03*
%TO.N,+5V*%
X135500000Y-79500000D03*
X125500000Y-95500000D03*
X134000000Y-81000000D03*
X123500000Y-102000000D03*
%TD*%
D10*
%TO.N,+3.3V*%
X150500000Y-111500000D02*
X150500000Y-123000000D01*
X140000000Y-105000000D02*
X141000000Y-104000000D01*
X150500000Y-111500000D02*
X153930000Y-111500000D01*
X143000000Y-104000000D02*
X150500000Y-111500000D01*
X141000000Y-104000000D02*
X143000000Y-104000000D01*
X153930000Y-111500000D02*
X158115000Y-107315000D01*
%TO.N,/38*%
X142601000Y-92899000D02*
X167966100Y-92899000D01*
X142500000Y-93000000D02*
X142601000Y-92899000D01*
X167966100Y-92899000D02*
X203000000Y-127932900D01*
%TO.N,GND*%
X137160000Y-90170000D02*
X137160000Y-88265000D01*
X184150000Y-98425000D02*
X183515000Y-99060000D01*
X180975000Y-95885000D02*
X181610000Y-96520000D01*
X180975000Y-95250000D02*
X180975000Y-95885000D01*
X130175000Y-97155000D02*
X137160000Y-90170000D01*
X184150000Y-97155000D02*
X184150000Y-98425000D01*
%TO.N,/37*%
X180000000Y-127500000D02*
X180457518Y-127957518D01*
X146000000Y-93500000D02*
X180000000Y-127500000D01*
X180457518Y-127957518D02*
X191447482Y-127957518D01*
X191447482Y-127957518D02*
X194945000Y-124460000D01*
%TO.N,/19*%
X138500000Y-108000000D02*
X140000000Y-108000000D01*
X140000000Y-108000000D02*
X142500000Y-105500000D01*
%TO.N,/36*%
X132000000Y-84500000D02*
X130500000Y-83000000D01*
X130500000Y-83000000D02*
X130500000Y-81000000D01*
%TO.N,+5V*%
X123500000Y-97500000D02*
X123500000Y-102000000D01*
X125500000Y-95500000D02*
X123500000Y-97500000D01*
X134000000Y-81000000D02*
X135500000Y-79500000D01*
%TD*%
M02*
