M48
; DRILL file {KiCad 9.0.0} date 2025-04-03T13:23:11+0530
; FORMAT={-:-/ absolute / metric / decimal}
; #@! TF.CreationDate,2025-04-03T13:23:11+05:30
; #@! TF.GenerationSoftware,Kicad,Pcbnew,9.0.0
; #@! TF.FileFunction,Plated,1,2,PTH
FMAT,2
METRIC
; #@! TA.AperFunction,Plated,PTH,ComponentDrill
T1C0.200
; #@! TA.AperFunction,Plated,PTH,ViaDrill
T2C0.300
; #@! TA.AperFunction,Plated,PTH,ComponentDrill
T3C0.800
; #@! TA.AperFunction,Plated,PTH,ComponentDrill
T4C1.000
; #@! TA.AperFunction,Plated,PTH,ComponentDrill
T5C1.300
%
G90
G05
T1
X108.475Y-81.65
X109.225Y-80.875
X109.225Y-81.65
X109.225Y-82.425
X110.275Y-80.875
X110.275Y-81.65
X110.275Y-82.425
X111.025Y-81.65
T2
X102.5Y-85.0
X104.0Y-84.0
X111.5Y-85.5
X111.5Y-87.5
X115.0Y-80.5
X115.0Y-85.5
X115.5Y-82.0
X115.5Y-87.5
X117.0Y-85.5
X117.5Y-87.5
X123.5Y-102.0
X125.5Y-95.5
X129.5Y-80.5
X129.54Y-101.6
X132.0Y-84.5
X133.0Y-111.0
X134.0Y-81.0
X134.0Y-87.5
X134.25Y-78.25
X134.5Y-109.0
X134.5Y-111.5
X135.5Y-79.5
X135.5Y-88.0
X136.5Y-108.5
X136.5Y-112.0
X137.16Y-86.995
X137.891Y-78.891
X138.5Y-110.0
X140.0Y-105.0
X140.0Y-112.5
X142.5Y-93.0
X142.5Y-105.5
X143.0Y-104.0
X144.0Y-94.0
X144.145Y-107.315
X146.05Y-111.125
X148.59Y-119.38
X148.59Y-130.175
X149.225Y-116.84
X149.225Y-128.905
X150.495Y-124.46
X150.5Y-123.0
X152.4Y-124.46
X153.0Y-94.5
X155.5Y-96.0
X158.115Y-107.315
X159.385Y-118.11
X160.02Y-106.045
X161.925Y-120.015
X162.56Y-104.775
X163.83Y-120.65
X164.465Y-118.745
X168.5Y-107.5
X172.0Y-109.5
X179.07Y-97.155
X179.07Y-117.475
X179.705Y-116.205
X180.975Y-95.25
X181.61Y-84.455
X181.61Y-91.44
X181.61Y-94.615
X181.61Y-96.52
X182.245Y-99.06
X183.515Y-84.455
X183.515Y-93.345
X183.515Y-99.06
X184.15Y-91.44
X184.15Y-97.155
X186.69Y-97.155
X186.69Y-100.33
X187.96Y-96.52
X189.23Y-98.425
X194.945Y-124.46
X197.485Y-93.98
X197.485Y-132.715
X199.39Y-95.885
X199.39Y-129.54
X200.025Y-126.365
T3
X89.0Y-60.0
X89.0Y-62.54
X89.0Y-65.08
X89.0Y-67.62
T4
X136.4Y-64.0
X144.0Y-64.0
T5
X83.75Y-109.0
X83.75Y-121.5
X88.75Y-109.0
X88.75Y-121.5
T4
G00X88.0Y-89.5
M15
G01X88.0Y-91.5
M16
G05
G00X90.0Y-95.2
M15
G01X92.0Y-95.2
M16
G05
G00X94.0Y-89.5
M15
G01X94.0Y-91.5
M16
G05
M30
